<mxfile host="65bd71144e">
    <diagram id="H-qOBxVqP2fXf9ZkCsyu" name="PÃ¡gina-1">
        <mxGraphModel dx="1878" dy="480" grid="1" gridSize="10" guides="1" tooltips="1" connect="1" arrows="1" fold="1" page="1" pageScale="1" pageWidth="850" pageHeight="1100" math="0" shadow="0">
            <root>
                <mxCell id="0"/>
                <mxCell id="1" parent="0"/>
                <mxCell id="4" value="" style="edgeStyle=none;html=1;strokeColor=#FFFFFF;" edge="1" parent="1" source="2" target="3">
                    <mxGeometry relative="1" as="geometry"/>
                </mxCell>
                <mxCell id="2" value="INICIO" style="ellipse;whiteSpace=wrap;html=1;fillColor=#99004D;" vertex="1" parent="1">
                    <mxGeometry x="300" y="40" width="130" height="80" as="geometry"/>
                </mxCell>
                <mxCell id="8" value="" style="edgeStyle=none;html=1;strokeColor=#FFFFFF;" edge="1" parent="1" source="3" target="7">
                    <mxGeometry relative="1" as="geometry"/>
                </mxCell>
                <mxCell id="3" value="A,B,C" style="shape=parallelogram;perimeter=parallelogramPerimeter;whiteSpace=wrap;html=1;fixedSize=1;fillColor=#0066CC;" vertex="1" parent="1">
                    <mxGeometry x="290" y="210" width="150" height="50" as="geometry"/>
                </mxCell>
                <mxCell id="21" value="" style="edgeStyle=none;html=1;entryX=0.545;entryY=0;entryDx=0;entryDy=0;entryPerimeter=0;fillColor=#000099;strokeColor=#FFFFFF;" edge="1" parent="1" source="7" target="20">
                    <mxGeometry relative="1" as="geometry">
                        <mxPoint x="760" y="450" as="targetPoint"/>
                        <Array as="points">
                            <mxPoint x="730" y="370"/>
                            <mxPoint x="760" y="370"/>
                        </Array>
                    </mxGeometry>
                </mxCell>
                <mxCell id="41" style="edgeStyle=none;html=1;exitX=0;exitY=0.5;exitDx=0;exitDy=0;fillColor=#FFFFFF;strokeColor=#FFFFFF;" edge="1" parent="1" source="7">
                    <mxGeometry relative="1" as="geometry">
                        <mxPoint y="430" as="targetPoint"/>
                        <Array as="points">
                            <mxPoint y="370"/>
                        </Array>
                    </mxGeometry>
                </mxCell>
                <mxCell id="7" value="A&amp;gt;B" style="rhombus;whiteSpace=wrap;html=1;fillColor=#99004D;" vertex="1" parent="1">
                    <mxGeometry x="300" y="330" width="130" height="80" as="geometry"/>
                </mxCell>
                <mxCell id="42" style="edgeStyle=none;html=1;exitX=0;exitY=0.5;exitDx=0;exitDy=0;entryX=0.408;entryY=0.017;entryDx=0;entryDy=0;entryPerimeter=0;strokeColor=#FFFFFF;" edge="1" parent="1" source="16" target="24">
                    <mxGeometry relative="1" as="geometry">
                        <Array as="points">
                            <mxPoint x="-121" y="485"/>
                        </Array>
                    </mxGeometry>
                </mxCell>
                <mxCell id="44" style="edgeStyle=none;html=1;exitX=1;exitY=0.5;exitDx=0;exitDy=0;entryX=0.5;entryY=0;entryDx=0;entryDy=0;strokeColor=#FFFFFF;" edge="1" parent="1" source="16" target="22">
                    <mxGeometry relative="1" as="geometry">
                        <Array as="points">
                            <mxPoint x="120" y="485"/>
                        </Array>
                    </mxGeometry>
                </mxCell>
                <mxCell id="16" value="B&amp;gt;C" style="rhombus;whiteSpace=wrap;html=1;fillColor=#0066CC;" vertex="1" parent="1">
                    <mxGeometry x="-60" y="440" width="110" height="90" as="geometry"/>
                </mxCell>
                <mxCell id="28" value="" style="edgeStyle=none;html=1;strokeColor=#FFFFFF;" edge="1" parent="1" source="20" target="27">
                    <mxGeometry relative="1" as="geometry">
                        <Array as="points">
                            <mxPoint x="620" y="485"/>
                        </Array>
                    </mxGeometry>
                </mxCell>
                <mxCell id="30" value="" style="edgeStyle=none;html=1;strokeColor=#FFFFFF;" edge="1" parent="1" source="20" target="29">
                    <mxGeometry relative="1" as="geometry">
                        <Array as="points">
                            <mxPoint x="890" y="485"/>
                        </Array>
                    </mxGeometry>
                </mxCell>
                <mxCell id="20" value="A&amp;gt;C" style="rhombus;whiteSpace=wrap;html=1;fillColor=#004C99;" vertex="1" parent="1">
                    <mxGeometry x="700" y="440" width="110" height="90" as="geometry"/>
                </mxCell>
                <mxCell id="51" value="" style="edgeStyle=none;html=1;strokeColor=#FFFFFF;" edge="1" parent="1" source="22">
                    <mxGeometry relative="1" as="geometry">
                        <mxPoint x="120" y="690" as="targetPoint"/>
                    </mxGeometry>
                </mxCell>
                <mxCell id="22" value="El numero mayor es: &quot;B&quot;" style="whiteSpace=wrap;html=1;fillColor=#99004D;" vertex="1" parent="1">
                    <mxGeometry x="60" y="560" width="120" height="60" as="geometry"/>
                </mxCell>
                <mxCell id="45" style="edgeStyle=none;html=1;exitX=0.5;exitY=1;exitDx=0;exitDy=0;strokeColor=#FFFFFF;" edge="1" parent="1" source="24">
                    <mxGeometry relative="1" as="geometry">
                        <mxPoint x="120" y="690" as="targetPoint"/>
                        <Array as="points">
                            <mxPoint x="-110" y="690"/>
                        </Array>
                    </mxGeometry>
                </mxCell>
                <mxCell id="24" value="El numero mayor es : &quot;C&quot;" style="whiteSpace=wrap;html=1;fillColor=#99004D;" vertex="1" parent="1">
                    <mxGeometry x="-170" y="560" width="120" height="60" as="geometry"/>
                </mxCell>
                <mxCell id="47" style="edgeStyle=none;html=1;exitX=0.5;exitY=1;exitDx=0;exitDy=0;strokeColor=#FFFFFF;" edge="1" parent="1" source="27">
                    <mxGeometry relative="1" as="geometry">
                        <mxPoint x="890" y="720" as="targetPoint"/>
                        <Array as="points">
                            <mxPoint x="620" y="720"/>
                        </Array>
                    </mxGeometry>
                </mxCell>
                <mxCell id="27" value="El numero mayor es: &quot;C&quot;" style="whiteSpace=wrap;html=1;fillColor=#99004D;" vertex="1" parent="1">
                    <mxGeometry x="560" y="580" width="120" height="60" as="geometry"/>
                </mxCell>
                <mxCell id="48" style="edgeStyle=none;html=1;exitX=0.5;exitY=1;exitDx=0;exitDy=0;strokeColor=#FFFFFF;fillColor=#FFFFFF;" edge="1" parent="1" source="29">
                    <mxGeometry relative="1" as="geometry">
                        <mxPoint x="890" y="720" as="targetPoint"/>
                    </mxGeometry>
                </mxCell>
                <mxCell id="29" value="El numero mayor es: &quot;A&quot;" style="whiteSpace=wrap;html=1;fillColor=#99004D;" vertex="1" parent="1">
                    <mxGeometry x="830" y="590" width="120" height="60" as="geometry"/>
                </mxCell>
                <mxCell id="49" style="edgeStyle=none;html=1;exitX=1;exitY=0.5;exitDx=0;exitDy=0;strokeColor=#FFCCE6;" edge="1" parent="1">
                    <mxGeometry relative="1" as="geometry">
                        <mxPoint x="760" y="720" as="targetPoint"/>
                        <mxPoint x="430" y="860" as="sourcePoint"/>
                        <Array as="points">
                            <mxPoint x="760" y="860"/>
                        </Array>
                    </mxGeometry>
                </mxCell>
                <mxCell id="52" style="edgeStyle=none;html=1;strokeColor=#FFFFFF;" edge="1" parent="1" source="50">
                    <mxGeometry relative="1" as="geometry">
                        <mxPoint y="690" as="targetPoint"/>
                        <Array as="points">
                            <mxPoint y="870"/>
                        </Array>
                    </mxGeometry>
                </mxCell>
                <mxCell id="54" value="" style="edgeStyle=none;html=1;strokeColor=#FFFFFF;" edge="1" parent="1" source="50" target="53">
                    <mxGeometry relative="1" as="geometry"/>
                </mxCell>
                <mxCell id="50" value="M" style="shape=document;whiteSpace=wrap;html=1;boundedLbl=1;fillColor=#004C99;" vertex="1" parent="1">
                    <mxGeometry x="300" y="830" width="120" height="80" as="geometry"/>
                </mxCell>
                <mxCell id="53" value="FIN" style="ellipse;whiteSpace=wrap;html=1;fillColor=#99004D;" vertex="1" parent="1">
                    <mxGeometry x="290" y="990" width="140" height="80" as="geometry"/>
                </mxCell>
            </root>
        </mxGraphModel>
    </diagram>
</mxfile>